<mxfile host="app.diagrams.net" modified="2021-09-27T06:21:12.224Z" agent="5.0 (Macintosh; Intel Mac OS X 10_14_6) AppleWebKit/537.36 (KHTML, like Gecko) Chrome/92.0.4515.107 Safari/537.36 Edg/92.0.902.62" etag="-9v4OGQooPJK-fFxkFWb" version="14.4.2" type="github">
  <diagram id="7GEHwetSPbrOQNEcrand" name="第 1 页">
    <mxGraphModel dx="1666" dy="826" grid="1" gridSize="10" guides="1" tooltips="1" connect="1" arrows="1" fold="1" page="1" pageScale="1" pageWidth="827" pageHeight="1169" math="0" shadow="0">
      <root>
        <mxCell id="0" />
        <mxCell id="1" parent="0" />
        <mxCell id="qH9IwjWAYhO64npHamcx-1" value="" style="whiteSpace=wrap;html=1;aspect=fixed;" vertex="1" parent="1">
          <mxGeometry x="70" y="270" width="310" height="310" as="geometry" />
        </mxCell>
        <mxCell id="qH9IwjWAYhO64npHamcx-2" value="" style="rounded=1;whiteSpace=wrap;html=1;" vertex="1" parent="1">
          <mxGeometry x="110" y="340" width="190" height="110" as="geometry" />
        </mxCell>
        <mxCell id="qH9IwjWAYhO64npHamcx-5" value="&lt;font style=&quot;font-size: 24px&quot;&gt;宿主机&lt;/font&gt;" style="text;html=1;strokeColor=none;fillColor=none;align=center;verticalAlign=middle;whiteSpace=wrap;rounded=0;" vertex="1" parent="1">
          <mxGeometry x="75" y="260" width="300" height="60" as="geometry" />
        </mxCell>
        <mxCell id="qH9IwjWAYhO64npHamcx-6" value="虚&lt;br&gt;拟&lt;br&gt;机" style="text;html=1;strokeColor=none;fillColor=none;align=center;verticalAlign=middle;whiteSpace=wrap;rounded=0;" vertex="1" parent="1">
          <mxGeometry x="290" y="350" width="40" height="70" as="geometry" />
        </mxCell>
        <mxCell id="qH9IwjWAYhO64npHamcx-8" value="" style="rounded=0;whiteSpace=wrap;html=1;" vertex="1" parent="1">
          <mxGeometry x="130" y="380" width="160" height="40" as="geometry" />
        </mxCell>
        <mxCell id="qH9IwjWAYhO64npHamcx-10" value="source：tcp 链接" style="rounded=0;whiteSpace=wrap;html=1;" vertex="1" parent="1">
          <mxGeometry x="150" y="575" width="110" height="20" as="geometry" />
        </mxCell>
        <mxCell id="qH9IwjWAYhO64npHamcx-12" value="channel" style="text;html=1;strokeColor=none;fillColor=none;align=center;verticalAlign=middle;whiteSpace=wrap;rounded=0;" vertex="1" parent="1">
          <mxGeometry x="220" y="490" width="40" height="20" as="geometry" />
        </mxCell>
        <mxCell id="qH9IwjWAYhO64npHamcx-14" value="target:&amp;nbsp;virtio device&lt;br&gt;&amp;nbsp;org.qemu.telegraf_agent.0" style="text;html=1;strokeColor=none;fillColor=none;align=center;verticalAlign=middle;whiteSpace=wrap;rounded=0;" vertex="1" parent="1">
          <mxGeometry x="187" y="390" width="40" height="20" as="geometry" />
        </mxCell>
        <mxCell id="qH9IwjWAYhO64npHamcx-17" value="" style="shape=flexArrow;endArrow=classic;startArrow=classic;html=1;exitX=0.5;exitY=0;exitDx=0;exitDy=0;" edge="1" parent="1" source="qH9IwjWAYhO64npHamcx-10">
          <mxGeometry width="50" height="50" relative="1" as="geometry">
            <mxPoint x="170" y="500" as="sourcePoint" />
            <mxPoint x="205" y="420" as="targetPoint" />
          </mxGeometry>
        </mxCell>
        <mxCell id="qH9IwjWAYhO64npHamcx-21" value="qemu-gets-agent" style="text;html=1;strokeColor=none;fillColor=none;align=center;verticalAlign=middle;whiteSpace=wrap;rounded=0;" vertex="1" parent="1">
          <mxGeometry x="160" y="350" width="110" height="20" as="geometry" />
        </mxCell>
      </root>
    </mxGraphModel>
  </diagram>
</mxfile>
